Genre:Action | Adventure | Thriller
Language:English
IMDb:http://www.imdb.com/title/tt1320253/
Source:DVDR-IND.Thanks
Subtitles: ROMANA/English Hardcoded

General
Complete name :The Expendables.2010.DvDScr.Xvid.AC3.FEEL-FREE
Format : AVI
Format/Info : Audio Video Interleave
File size : 1.81 GiB
Duration : 1h 38mn
Overall bit rate : 2 626 Kbps
Writing library : VirtualDub build 32817/release
Video #0
Codec ID : XVID
Codec ID/Hint : XviD
Duration : 1h 38mn
Bit rate : 2 232 Kbps
Width : 688 pixels
Height : 288 pixels
Display aspect ratio : 2.35:1
Frame rate : 25.000 fps
Resolution : 24 bits
Colorimetry : 4:2:0
Scan type : Progressive
Bits/(Pixel*Frame) : 0.451
Stream size : 1.54 GiB (85%)
Writing library : XviD 1.2.1 (UTC 2008-12-04)
Audio #1
ID : 1
Format : AC-3
Format/Info : Audio Coding 3
Codec ID : 2000
Duration : 1h 38mn
Bit rate mode : Constant
Bit rate : 384 Kbps
Channel(s) : 2 channels
Channel positions : L R
Sampling rate : 48.0 KHz
Stream size : 271 MiB (15%)
Alignment : Split accross interleaves
Interleave, duration : 40 ms (1.00 video frame)
Interleave, preload duration : 500 ms

Plot
A team of mercenaries head to South America on a mission to overthrow a dictator





 
http://thepiratebay.org/user/hiest







Screenshots:
 
http://www.starshare.ro/bitbucket/vlcsnap-2010-08-28-19h49m03s198.jpg
 
http://www.starshare.ro/bitbucket/vlcsnap-2010-08-28-19h49m24s148.jpg
 
http://www.starshare.ro/bitbucket/vlcsnap-2010-08-28-19h49m45s105.jpg
 
http://www.starshare.ro/bitbucket/vlcsnap-2010-08-28-19h49m32s226.jpg
 
http://www.starshare.ro/bitbucket/vlcsnap-2010-08-28-19h49m39s45.jpg

